PathFileType  4	(X/Y/Z) C:\Users\antoi\Documents\MyRepositories\mobilecap\ResultsAnalysis
DataRate	CameraRate	NumFrames	NumMarkers	Units	OrigDataRate	OrigDataStartFrame	OrigNumFrames
100.0	100.0	4	51	mm	100.0	69	137
Frame#	Time	r_knee			r_shank_antsup			r_ankle			r_calc			r_5meta			r_toe			L_knee			L_shank_antsup			L_ankle			L_calc			L_5meta			L_toe			r_sh2			r_sh3			r_sh4			L_sh2			L_sh3			r_thigh1			r_thigh2			r_thigh3			r_thigh4			r_thigh5			L_thigh1			L_thigh2			L_thigh3			L_thigh4			r.ASIS			r.PSIS			L.ASIS			L.PSIS			C7			R_Shoulder			L_Shoulder			R_Sternum			L_Sternum			R_humerus			R_elbow_med			R_elbow_lat			R_forearm			R_wrist_radius			R_wrist_ulna			L_humerus			L_elbow_med			L_elbow_lat			L_forearm			L_wrist_radius			L_wrist_ulna			R_HJC			L_HJC			R_HJC_reg			L_HJC_reg			
		X1	Y1	Z1	X2	Y2	Z2	X3	Y3	Z3	X4	Y4	Z4	X5	Y5	Z5	X6	Y6	Z6	X7	Y7	Z7	X8	Y8	Z8	X9	Y9	Z9	X10	Y10	Z10	X11	Y11	Z11	X12	Y12	Z12	X13	Y13	Z13	X14	Y14	Z14	X15	Y15	Z15	X16	Y16	Z16	X17	Y17	Z17	X18	Y18	Z18	X19	Y19	Z19	X20	Y20	Z20	X21	Y21	Z21	X22	Y22	Z22	X23	Y23	Z23	X24	Y24	Z24	X25	Y25	Z25	X26	Y26	Z26	X27	Y27	Z27	X28	Y28	Z28	X29	Y29	Z29	X30	Y30	Z30	X31	Y31	Z31	X32	Y32	Z32	X33	Y33	Z33	X34	Y34	Z34	X35	Y35	Z35	X36	Y36	Z36	X37	Y37	Z37	X38	Y38	Z38	X39	Y39	Z39	X40	Y40	Z40	X41	Y41	Z41	X42	Y42	Z42	X43	Y43	Z43	X44	Y44	Z44	X45	Y45	Z45	X46	Y46	Z46	X47	Y47	Z47	X48	Y48	Z48	X49	Y49	Z49	X50	Y50	Z50	X51	Y51	Z51	

69	0.68000000	503.60803	518.13907	-75.20224	480.49667	412.62013	-92.70397	225.27226	186.73317	-140.26509	124.87570	188.13806	-183.00136	282.17727	51.97035	-126.23258	340.37845	60.81179	-196.72856	754.08939	526.07098	-355.95178	786.20087	439.85095	-370.21566	867.46002	118.74579	-292.32471	811.91040	63.73529	-235.47431	1002.13218	79.11928	-315.78394	1045.84697	131.17489	-256.28272	400.84387	333.87950	-78.39333	440.27729	460.71802	-50.45533	345.33781	392.29504	-53.32568	700.41664	415.19565	-364.87035	747.20926	303.17889	-349.40932	640.77299	824.91856	-43.70246	625.48994	716.11660	-49.97739	564.08204	699.73213	-27.98165	527.67323	836.88801	-29.49268	514.85338	724.28894	-45.42893	734.35441	831.90932	-375.62696	783.45257	701.72541	-352.86376	637.44783	787.47797	-405.87346	683.02685	660.75213	-387.68005	668.81907	1050.14334	-78.29981	488.39139	1046.89157	-161.50828	676.87461	1049.25418	-332.57964	488.50339	1043.87591	-271.74041	567.50658	1605.71298	-228.52718	633.39150	1535.96199	-70.53542	558.69991	1524.07089	-398.42754	670.73446	1490.50224	-214.21584	656.47967	1486.82843	-271.32993	652.83277	1390.12391	8.84138	586.64337	1177.07416	13.74852	613.58995	1213.54305	90.10928	754.63272	1108.16160	89.52815	836.31559	1061.53044	64.17565	808.39875	1042.91570	97.27666	479.74636	1405.90103	-449.74858	384.03244	1212.63527	-328.80682	364.92579	1215.12828	-408.58823	362.84768	1142.16998	-434.12723	327.91748	964.79767	-416.68333	289.69379	979.54912	-421.19891	600.00732	926.85346	-105.02274	604.00843	931.29636	-311.89927	618.97767	964.72179	-111.87784	619.14543	960.12026	-279.71899	
70	0.69000000	527.36326	516.45340	-72.17847	501.00343	411.94952	-88.64618	238.79347	194.92616	-138.33173	139.99092	204.32581	-181.69227	285.17283	55.41912	-126.41233	344.32013	60.83165	-196.26764	765.88398	525.95566	-356.85001	797.29490	439.23097	-370.99276	872.58773	117.47619	-292.25235	814.73047	65.29362	-235.38663	1005.43216	73.35029	-315.14621	1050.88520	123.91109	-255.46593	417.89036	336.28690	-75.21626	461.32032	461.78769	-47.54648	364.28571	396.99605	-51.89564	711.17138	415.45199	-367.01516	756.67097	303.02538	-350.85153	658.88035	825.67272	-43.67515	645.77337	716.55184	-48.08883	584.33777	699.20649	-26.44312	545.60798	835.88485	-29.74730	534.88228	722.92818	-44.33280	749.30894	832.38767	-374.82424	796.77259	701.54953	-352.05949	652.54308	789.06787	-407.14690	696.57652	661.81860	-388.94580	684.71084	1050.64958	-79.07223	504.29900	1047.45945	-161.88056	692.91832	1050.45471	-332.97578	504.55981	1045.24768	-272.27525	581.88785	1606.50872	-229.26536	647.12302	1536.94385	-70.81147	574.04103	1524.76853	-399.17034	685.32081	1491.66794	-214.46045	671.31192	1487.98193	-271.65830	665.09878	1390.46594	8.35761	596.88949	1177.96635	11.33852	623.47298	1213.72137	88.16568	763.27537	1106.65516	88.54919	844.66476	1059.18750	63.80332	816.32985	1040.72255	96.55344	495.96625	1406.09982	-450.86117	401.21702	1212.22360	-330.04697	382.39090	1214.50980	-409.94063	381.00761	1141.50847	-435.45618	347.52837	963.88201	-418.10704	309.18998	978.35549	-422.60753	615.92533	927.39186	-105.95792	619.93698	932.54675	-312.81732	635.09367	964.83716	-113.28014	635.48796	961.46769	-280.90484	
71	0.70000000	552.67787	514.58996	-68.74941	523.01050	411.32139	-84.22955	254.34640	203.45862	-136.14879	158.10797	221.53098	-179.91878	288.86055	60.00729	-126.58769	349.09518	61.49491	-195.49134	777.71393	526.26931	-357.99250	808.19010	438.90933	-372.21522	877.03504	116.41208	-292.51102	817.08116	66.62754	-235.41411	1008.08740	68.01392	-315.15138	1055.26020	117.21388	-255.49780	436.69346	338.79978	-71.73425	483.95728	462.87862	-44.31362	385.01476	401.64311	-50.16508	721.63211	416.24546	-369.58135	765.63959	303.27405	-352.72031	677.20132	826.58699	-43.50097	666.58136	717.20011	-45.96209	605.19555	698.66409	-24.61650	563.79630	834.70844	-29.85302	555.45294	721.38712	-42.85369	763.75755	833.32428	-374.62277	810.03530	702.03610	-351.82458	667.22743	790.77901	-408.78168	710.07754	663.16891	-390.41780	700.26942	1051.23698	-79.93805	519.85807	1048.11814	-162.15492	708.51123	1051.87436	-333.51145	520.20846	1046.77120	-272.70146	596.22298	1607.43329	-229.94307	660.78791	1538.11883	-71.01624	589.52784	1525.63616	-399.86872	699.86475	1492.95423	-214.57965	686.13823	1489.17714	-271.82882	677.22364	1391.01008	7.93763	606.92838	1179.12517	8.79943	633.11405	1214.09678	86.13171	771.44816	1105.07884	87.60003	852.45061	1056.59529	63.54163	823.62594	1038.35246	95.90749	512.52006	1406.36731	-452.07522	418.72435	1211.81997	-331.54183	400.33511	1213.86645	-411.56078	399.90593	1140.79754	-437.00677	368.02096	962.91779	-419.86192	329.53527	977.06362	-424.39305	631.56559	928.01486	-106.98250	635.41809	933.99316	-313.82154	650.88878	965.03674	-114.80663	651.41892	962.98780	-282.23791	
72	0.71000000	579.29730	512.69133	-65.05765	546.50394	410.81288	-79.64894	271.93541	212.19544	-133.67312	179.34817	239.33036	-177.65255	293.48160	65.77399	-126.69367	354.90380	62.91434	-194.28296	789.38413	526.93551	-359.28416	818.82328	438.85120	-373.72490	880.82500	115.55215	-292.95864	818.90897	67.73844	-235.51862	1010.18085	63.26971	-315.53976	1058.99019	111.18878	-256.00249	457.32875	341.35590	-68.02427	508.18099	463.98678	-40.85277	407.49915	406.13160	-48.12658	731.74200	417.52115	-372.42202	774.05652	303.88517	-354.88514	695.57007	827.64666	-43.18603	687.68359	718.06944	-43.69774	626.46692	698.16167	-22.56594	582.10310	833.37481	-29.82677	576.41434	719.75568	-41.05660	777.72512	834.60894	-375.19733	823.20629	703.04888	-352.33673	681.35904	792.58664	-410.59843	723.31993	664.73976	-391.94956	715.40453	1051.86780	-80.85210	535.00278	1048.84503	-162.33500	723.63000	1053.47631	-334.18450	535.38832	1048.40396	-272.99909	610.48163	1608.47420	-230.54199	674.37898	1539.43222	-71.13542	605.09880	1526.66178	-400.49271	714.33980	1494.32045	-214.56699	700.93136	1490.39071	-271.84143	689.20157	1391.69700	7.58323	616.80979	1180.49695	6.17682	642.53636	1214.62848	84.03830	779.17488	1103.41814	86.68378	859.69044	1053.75295	63.38239	830.30084	1035.80927	95.32752	529.37649	1406.67564	-453.37338	436.51478	1211.39208	-333.28393	418.71539	1213.17580	-413.43384	419.46191	1140.03702	-438.77145	389.36834	961.89296	-421.94124	350.70083	975.66119	-426.55487	646.84624	928.69069	-108.07494	650.40247	935.59799	-314.88818	666.28322	965.29813	-116.40729	666.86627	964.62715	-283.69556	
